_________________________  Visit us at _________________________
  
http://p2pdl.com  ____________________________  http://p2pdl.com

 
http://i.imgur.com/YuSXe.jpg


Release Title: The Deer Hunter (1978) 

					
Genre: Drama | War
IMDb Rating: 8.2/10  
http://vt802.us/zUcyT


Plot: An in-depth examination of the way that the Vietnam war affects the lives of people in a small industrial town in the USA. 


Director:  Michael Cimino


Stars: Robert De Niro, Christopher Walken and John Cazale.


General
Format                         : Matroska
Format version                 : Version 2
File size                      : 2.98 GiB
Duration                       : 3h 3mn
Overall bit rate               : 2 324 Kbps
Movie name                     : The Deer Hunter 1978 1080p BRRip  x264 6Ch-AAC - ViZNU [P2PDL]


Video
ID                             : 1
Format                         : AVC
Format/Info                    : Advanced Video Codec
Codec ID                       : V_MPEG4/ISO/AVC
Duration                       : 3h 3mn
Bit rate                       : 1 872 Kbps
Width                          : 1 920 pixels
Height                         : 816 pixels
Display aspect ratio           : 2.35:1
Frame rate                     : 23.976 fps
Color space                    : YUV
Chroma subsampling             : 4:2:0
Bit depth                      : 8 bits
Stream size                    : 2.35 GiB (79%)
Writing library                : x264 
Default                        : Yes


Audio
ID                             : 2
Format                         : AC-3
Format/Info                    : Audio Coding 3
Mode extension                 : CM (complete main)
Codec ID                       : A_AC3
Duration                       : 3h 3mn
Bit rate mode                  : Constant
Bit rate                       : 448 Kbps
Channel(s)                     : 6 channels
Channel positions              : Front: L C R, Side: L R, LFE
Sampling rate                  : 44.1 KHz
Stream size                    : 589 MiB (19%)
Language                       : English
Default                        : Yes


Subtitle: VobSub [English (Subtitle 1)]


Screens:

 
http://i.imgbox.com/abs7algC.png 
http://i.imgbox.com/acwTvBuZ.png 
http://i.imgbox.com/adp5KhdQ.png 
http://i.imgbox.com/abk5xCnY.png 
http://i.imgbox.com/aclOZxlY.png 
http://i.imgbox.com/abxymIYo.png 
http://i.imgbox.com/adweaWaD.png 
http://i.imgbox.com/abo1TYHn.png 
http://i.imgbox.com/acsSCwxW.png 
http://i.imgbox.com/acnmgnuu.png


Sample:

 
http://vt802.us/UX3uF


------------------------------------------------------------------------


Recommend you to use VLC player. Check sample to be sure. Enjoy!


Greets to: srkfan, Vitamin_X, MgB, Feel_Free, staff members at ExtraTorrent, TPB,KAT, 1337x, PublicHD, Ahashare,
SilverTorrent, TorrentMafia, P2PDL, and all others


Encoder Notes: Looking For Early Access To Anything You Can Provide DVDScr, R5, DVDRips, BluRay, Direct Audio, Early Music
Releases, Seedboxes, Links, Dedicated Servers anything u can provide, Advance / Promo CDs/DVDs. If You Got anything to
offer contact me at "contact@tinym.eu"


Our Facebook Group:    
http://vt802.us/mbPOi


Our Facebook Fan Page:    
http://vt802.us/0OS2J
